<svg width="989" height="112" viewBox="0 0 989 112" fill="none" xmlns="http://www.w3.org/2000/svg">
<path d="M15.3829 2L1 49.0196L15.3829 68.7892L1 111L53.3949 99.7794H490.019H584.021L602 90.6961L600.459 68.2549L571.693 51.1569L516.216 59.7059L458.171 45.2794L421.7 59.7059L461.767 2L409.885 21.7696L345.162 2L284.035 21.7696L240.373 2L151.507 21.7696L130.446 2L53.3949 21.7696L15.3829 2Z" fill="white" stroke="#767676"/>
<path d="M32.18 49.48L33.62 42.7C34.19 39.91 33.47 38.74 32.39 38.74C30.5 38.74 29.78 40.66 28.34 43.27C27.38 45.07 26.57 46.81 25.67 48.76V48.79L26.96 42.7C27.56 39.76 26.81 38.74 25.73 38.74C23.84 38.74 23.12 40.66 21.68 43.27C20.72 45.07 19.7 47.5 18.8 49.42C19.7 46.15 20.3 43.36 20.6 41.86C21.05 39.37 20.42 38.35 18.47 38.92L18.71 39.76C18.92 39.7 19.13 39.64 19.25 39.64C20.15 39.61 19.97 40.63 19.73 41.71L17.54 52.03L18.44 52C18.8 50.2 20.87 46.75 22.4 43.69C23.75 40.99 24.8 39.61 25.52 39.61C26.72 39.58 26.36 41.14 26.06 42.55L24.05 52H25.1C25.46 50.2 27.29 46.6 29 43.66C30.83 40.51 31.4 39.61 32.18 39.61C33.38 39.58 33.02 41.17 32.72 42.55L31.28 49.3C30.8 51.58 31.34 53.11 33.68 52.09L33.38 51.31C31.76 51.88 31.82 51.22 32.18 49.48ZM48.2783 46.66L49.8383 40.39L49.8983 40.03C47.8583 38.95 46.5083 38.71 44.9483 38.71C40.2983 38.71 37.3883 44.11 37.3583 48.13C37.3583 50.5 38.4083 52.39 40.7483 52.39C43.1783 52.39 45.3083 49.6 47.3483 46.72C47.0483 47.71 46.7783 49.12 46.7783 49.99C46.7183 51.55 47.4983 52.36 48.4583 52.36C49.2983 52.36 50.4383 51.91 51.8183 50.89L51.2183 50.2C49.9883 51.1 49.0283 51.46 48.5183 51.46C47.9483 51.46 47.6783 51.04 47.6783 50.14C47.6783 49.33 47.7383 48.85 48.2783 46.66ZM48.8483 40.57L47.7383 45.1C44.5883 49.12 42.6083 51.46 40.8683 51.46C39.0983 51.46 38.3183 49.96 38.3183 48.1C38.3183 44.62 40.9283 39.64 44.7983 39.64C45.9383 39.64 47.1383 39.58 48.8483 40.57ZM68.9066 49.57C67.6466 50.77 66.4766 51.46 65.6666 51.46C65.1266 51.46 65.1266 51.07 65.4566 49.54L68.1866 37.15C68.6966 34.78 68.2466 33.91 66.9266 33.94C66.2966 33.97 65.0366 34.42 63.5366 35.26L63.9566 36.07C65.1866 35.35 66.3866 34.87 66.8666 34.84C67.5266 34.81 67.7366 35.35 67.2866 37.18L66.6566 39.88C65.4566 39.4 63.8666 38.77 62.5466 38.74C57.8366 38.62 54.5966 44.89 54.6266 47.98C54.5966 50.23 55.6766 52.39 58.4366 52.42C60.8966 52.39 62.7566 49.93 65.0966 46.87L64.3766 50.26C64.1966 51.1 64.1366 52.39 65.6666 52.42C66.8066 52.39 68.0066 51.55 69.3566 50.32L68.9066 49.57ZM66.3866 40.93L65.5766 44.77C62.0966 49.51 60.0266 51.46 58.4966 51.46C57.1766 51.46 55.6166 50.35 55.5866 47.95C55.5866 45.07 58.9166 39.46 62.3666 39.55C63.6566 39.58 65.5766 40.24 66.3866 40.93ZM74.4448 45.64C79.2748 46.99 85.6648 45.55 85.7248 41.74C85.7548 39.73 83.8948 38.71 81.5248 38.74C77.5948 38.74 73.3948 42.28 73.3648 47.26C73.3648 50.44 75.9148 52.39 78.8848 52.42C81.4348 52.39 83.9548 50.65 85.6348 49L84.9448 48.34C82.9948 50.23 81.2848 51.49 78.8248 51.52C76.3048 51.49 74.2648 49.87 74.2648 47.29C74.2648 46.72 74.3248 46.18 74.4448 45.64ZM81.5848 39.64C83.2948 39.61 84.8248 40.27 84.8248 41.74C84.8248 44.65 78.7948 46.09 74.6848 44.77C75.7648 41.59 78.7948 39.64 81.5848 39.64ZM122.331 43.12C122.331 40.81 121.731 39.04 119.001 39.1C116.601 39.13 114.711 41.26 112.401 44.17C114.171 35.68 114.831 33.88 112.581 33.94C111.981 33.94 110.721 34.42 109.191 35.26L109.641 36.07C110.811 35.35 112.041 34.84 112.551 34.84C113.751 34.75 113.181 36.4 110.061 51.07C115.941 54.85 122.361 49.93 122.331 43.12ZM111.111 50.53L112.041 46.03C114.741 42.55 116.901 39.94 118.911 40C120.831 40.03 121.431 40.75 121.431 43.27C121.461 49.39 115.581 53.44 111.111 50.53ZM140.14 39.13C138.55 43.45 133.66 51.58 130.54 51.52C128.77 51.49 130.06 49.69 130.6 47.5L132.13 41.53C132.67 39.43 131.8 38.71 130.78 38.74C130.15 38.74 128.89 39.22 127.39 40.06L127.81 40.84C129.04 40.15 130.24 39.67 130.72 39.64C131.32 39.58 131.59 40.06 131.2 41.68L129.73 47.26C129.07 49.9 128.23 52.39 130.3 52.39C134.05 52.39 138.4 45.22 139.72 41.68C138.55 46.72 137.98 49 137.59 50.53C136.72 53.89 135.43 55.6 133.12 55.87C131.98 55.99 130.6 55.75 128.95 55.3L128.68 56.17C130.51 56.71 132.04 56.92 133.3 56.74C135.91 56.41 137.38 54.7 138.52 50.53C139.18 48.07 139.93 44.44 141.04 39.13H140.14ZM177.766 51.04L176.626 50.08C176.296 50.47 175.966 50.86 175.456 50.86C174.826 50.86 174.286 50.5 173.236 48.94L169.936 44.05L174.136 40.6H177.406V39.1H169.906V40.6H171.826L166.126 45.25V34.3H161.206V35.8H164.626V50.5H161.206V52H169.006V50.5H166.126V47.2L168.796 45.01L172.276 50.2C173.026 51.34 173.926 52.36 175.456 52.36C176.356 52.36 177.226 51.76 177.766 51.04ZM180.545 40.63L180.215 41.11L181.505 41.83C182.405 40.57 182.645 40.21 182.975 40.21C183.335 40.21 183.515 40.45 183.515 41.26V50.5H181.085V52H190.835V50.5H185.015V44.47C187.685 41.26 189.335 40.24 190.715 40.21C192.515 40.18 193.325 41.38 193.415 42.76C192.215 42.34 191.285 43.15 191.285 44.05C191.285 44.98 192.065 45.61 192.905 45.61C193.955 45.61 194.975 44.77 194.975 43.18C194.975 40.3 193.295 38.71 190.715 38.71C188.435 38.71 187.175 39.91 185.015 42.31V41.47C185.105 39.25 184.055 38.71 182.975 38.71C182.015 38.71 181.445 39.31 180.545 40.63ZM206.033 37.84C206.873 37.84 207.563 37.12 207.563 36.31C207.563 35.5 206.873 34.78 206.033 34.78C205.193 34.78 204.473 35.5 204.473 36.31C204.473 37.12 205.193 37.84 206.033 37.84ZM212.363 50.5H207.023V39.1H199.793V40.6H205.523V50.5H199.793V52H212.363V50.5ZM223.481 52.36C227.141 52.36 229.991 51.13 229.991 48.55C229.991 46.33 228.431 45.19 224.801 44.95L222.911 44.83C220.181 44.65 219.101 44.05 219.101 42.61C219.101 41.41 220.301 40.09 223.781 40.09C225.731 40.09 226.961 40.6 227.591 41.26C226.931 41.38 226.511 41.8 226.511 42.58C226.511 43.33 227.141 43.87 228.011 43.87C228.851 43.87 229.571 43.27 229.571 42.16C229.571 40.15 227.111 38.74 223.811 38.74C219.551 38.74 217.571 40.72 217.571 42.64C217.571 44.83 218.741 46 222.851 46.27L224.621 46.39C227.561 46.6 228.371 47.44 228.371 48.61C228.371 50.11 226.691 51.01 223.451 51.01C220.841 51.01 219.881 50.38 219.251 49.72C219.911 49.6 220.331 49.18 220.331 48.4C220.331 47.65 219.701 47.11 218.831 47.11C217.991 47.11 217.271 47.71 217.271 48.82C217.271 50.83 219.761 52.36 223.481 52.36ZM243.719 50.5V34.3H241.619C240.689 37.51 238.559 40.66 234.809 42.49L235.649 43.63C239.969 41.29 241.349 39.04 242.219 36.28V50.5H235.109V52H249.059V50.5H243.719ZM259.848 52.39C263.598 52.39 266.958 49.33 266.958 43.15C266.958 36.97 263.598 33.91 259.848 33.91C256.068 33.91 252.708 36.97 252.708 43.15C252.708 49.33 256.068 52.39 259.848 52.39ZM259.818 50.89C256.878 50.89 254.208 48.49 254.208 43.15C254.208 37.81 256.878 35.41 259.848 35.41C262.758 35.41 265.488 37.81 265.458 43.15C265.428 48.49 262.758 50.89 259.818 50.89ZM283.986 45.76L285.426 45.91C285.186 50.02 281.646 52.36 277.956 52.36C273.216 52.36 270.606 49.09 270.606 45.43C270.606 41.38 273.186 38.71 277.296 38.71C280.056 38.71 282.966 40.21 282.966 42.85C282.966 44.2 282.156 45.01 281.136 45.01C280.146 45.01 279.426 44.35 279.426 43.36C279.426 42.46 280.536 41.8 281.436 42.25C281.046 41.05 279.636 40.21 277.296 40.21C274.086 40.21 272.106 42.19 272.106 45.43C272.106 48.49 274.476 50.86 277.956 50.86C281.136 50.86 283.746 48.79 283.986 45.76ZM303.924 48.79L302.604 48.16C301.674 50.35 301.404 50.89 300.894 50.89C300.564 50.89 300.384 50.5 300.384 49.69V42.61C300.384 39.67 296.874 38.74 294.474 38.74C292.464 38.74 289.224 39.61 289.224 42.01C289.224 43.12 289.794 43.87 290.784 43.87C291.774 43.87 292.344 43.27 292.344 42.4C292.344 41.62 291.444 40.99 290.904 41.26C291.354 40.51 293.094 40.24 294.474 40.24C295.914 40.24 298.884 40.6 298.884 42.61C298.884 43.96 298.014 44.29 294.414 44.38C291.174 44.47 288.084 45.61 288.114 48.55C288.144 51.31 290.124 52.39 292.434 52.39C294.954 52.39 296.664 51.46 298.884 49.69C298.824 51.61 299.814 52.39 300.894 52.39C302.124 52.39 302.784 51.67 303.924 48.79ZM298.884 44.95V47.83C296.454 49.93 294.774 50.89 292.464 50.89C290.664 50.89 289.614 50.14 289.614 48.49C289.614 46.69 291.774 45.91 294.384 45.88C297.054 45.85 297.984 45.46 298.884 44.95ZM305.863 34.3V35.8H308.533V52H310.033V49.45C311.233 51.1 313.063 52.39 315.103 52.39C318.793 52.39 321.283 49.33 321.283 45.52C321.283 41.71 318.793 38.71 315.103 38.71C313.033 38.71 311.203 40 310.033 41.65V34.3H305.863ZM310.033 47.26V43.84C311.683 41.89 313.033 40.21 315.103 40.21C317.953 40.21 319.783 42.55 319.783 45.52C319.812 48.58 317.923 50.89 315.103 50.89C313.123 50.89 311.713 49.21 310.033 47.26ZM324.451 40.63L324.121 41.11L325.411 41.83C326.311 40.57 326.551 40.21 326.881 40.21C327.241 40.21 327.421 40.45 327.421 41.26V50.5H324.991V52H334.741V50.5H328.921V44.47C331.591 41.26 333.241 40.24 334.621 40.21C336.421 40.18 337.231 41.38 337.321 42.76C336.121 42.34 335.191 43.15 335.191 44.05C335.191 44.98 335.971 45.61 336.811 45.61C337.861 45.61 338.881 44.77 338.881 43.18C338.881 40.3 337.201 38.71 334.621 38.71C332.341 38.71 331.081 39.91 328.921 42.31V41.47C329.011 39.25 327.961 38.71 326.881 38.71C325.921 38.71 325.351 39.31 324.451 40.63ZM342.769 45.31C342.769 49.36 345.919 52.36 349.459 52.36C352.159 52.36 354.769 51.25 356.659 47.89L355.369 47.14C354.109 49.66 351.979 50.86 349.459 50.86C346.549 50.86 344.269 48.43 344.269 45.49H355.819V44.89C355.819 41.11 352.729 38.74 349.459 38.74C345.799 38.74 342.769 40.69 342.769 45.31ZM354.229 43.99H344.359C344.659 41.74 346.429 40.24 349.459 40.24C351.949 40.24 354.019 42.04 354.229 43.99ZM360.427 40.63L360.097 41.11L361.387 41.83C362.287 40.57 362.527 40.21 362.857 40.21C363.217 40.21 363.397 40.45 363.397 41.26V50.5H360.967V52H370.717V50.5H364.897V44.47C367.567 41.26 369.217 40.24 370.597 40.21C372.397 40.18 373.207 41.38 373.297 42.76C372.097 42.34 371.167 43.15 371.167 44.05C371.167 44.98 371.947 45.61 372.787 45.61C373.837 45.61 374.857 44.77 374.857 43.18C374.857 40.3 373.177 38.71 370.597 38.71C368.317 38.71 367.057 39.91 364.897 42.31V41.47C364.987 39.25 363.937 38.71 362.857 38.71C361.897 38.71 361.327 39.31 360.427 40.63ZM393.866 48.79L392.546 48.16C391.616 50.35 391.346 50.89 390.836 50.89C390.506 50.89 390.326 50.5 390.326 49.69V42.61C390.326 39.67 386.816 38.74 384.416 38.74C382.406 38.74 379.166 39.61 379.166 42.01C379.166 43.12 379.736 43.87 380.726 43.87C381.716 43.87 382.286 43.27 382.286 42.4C382.286 41.62 381.386 40.99 380.846 41.26C381.296 40.51 383.036 40.24 384.416 40.24C385.856 40.24 388.826 40.6 388.826 42.61C388.826 43.96 387.956 44.29 384.356 44.38C381.116 44.47 378.026 45.61 378.056 48.55C378.086 51.31 380.066 52.39 382.376 52.39C384.896 52.39 386.606 51.46 388.826 49.69C388.766 51.61 389.756 52.39 390.836 52.39C392.066 52.39 392.726 51.67 393.866 48.79ZM388.826 44.95V47.83C386.396 49.93 384.716 50.89 382.406 50.89C380.606 50.89 379.556 50.14 379.556 48.49C379.556 46.69 381.716 45.91 384.326 45.88C386.996 45.85 387.926 45.46 388.826 44.95Z" fill="black"/>
<path d="M160.906 55H394.766V56.5H160.906V55Z" fill="black"/>
<path d="M17.74 73.4V74.4H20.34V79.96C20.34 81.94 21.96 82.26 22.94 82.26C24.3 82.26 25.5 81.34 28.06 79.8L27.52 79C25.3 80.32 24.08 81.26 22.94 81.26C22.28 81.26 21.34 81.24 21.34 79.72V74.4H26.96V73.4H21.34V70.2H20.34V73.4H17.74ZM35.9322 74.14C36.6522 74.14 37.5922 74.64 37.5922 75.88V81H35.9722V82H40.1922V81H38.5922V75.88C38.5922 73.8 37.0122 73.14 35.9322 73.14C34.6322 73.14 33.8522 74 32.4322 75.54V70.2H29.8122V71.2H31.4322V81H29.8122V82H34.0522V81H32.4322V76.96C34.2322 75.14 34.8922 74.14 35.9322 74.14ZM47.0844 72.56C47.6444 72.56 48.1044 72.08 48.1044 71.54C48.1044 71 47.6444 70.52 47.0844 70.52C46.5244 70.52 46.0444 71 46.0444 71.54C46.0444 72.08 46.5244 72.56 47.0844 72.56ZM51.3044 81H47.7444V73.4H42.9244V74.4H46.7444V81H42.9244V82H51.3044V81ZM58.7166 82.24C61.1566 82.24 63.0566 81.42 63.0566 79.7C63.0566 78.22 62.0166 77.46 59.5966 77.3L58.3366 77.22C56.5166 77.1 55.7966 76.7 55.7966 75.74C55.7966 74.94 56.5966 74.06 58.9166 74.06C60.2166 74.06 61.0366 74.4 61.4566 74.84C61.0166 74.92 60.7366 75.2 60.7366 75.72C60.7366 76.22 61.1566 76.58 61.7366 76.58C62.2966 76.58 62.7766 76.18 62.7766 75.44C62.7766 74.1 61.1366 73.16 58.9366 73.16C56.0966 73.16 54.7766 74.48 54.7766 75.76C54.7766 77.22 55.5566 78 58.2966 78.18L59.4766 78.26C61.4366 78.4 61.9766 78.96 61.9766 79.74C61.9766 80.74 60.8566 81.34 58.6966 81.34C56.9566 81.34 56.3166 80.92 55.8966 80.48C56.3366 80.4 56.6166 80.12 56.6166 79.6C56.6166 79.1 56.1966 78.74 55.6166 78.74C55.0566 78.74 54.5766 79.14 54.5766 79.88C54.5766 81.22 56.2366 82.24 58.7166 82.24ZM83.0609 72.56C83.6209 72.56 84.0809 72.08 84.0809 71.54C84.0809 71 83.6209 70.52 83.0609 70.52C82.5009 70.52 82.0209 71 82.0209 71.54C82.0209 72.08 82.5009 72.56 83.0609 72.56ZM87.2809 81H83.7209V73.4H78.9009V74.4H82.7209V81H78.9009V82H87.2809V81ZM94.6931 82.24C97.1331 82.24 99.0331 81.42 99.0331 79.7C99.0331 78.22 97.9931 77.46 95.5731 77.3L94.3131 77.22C92.4931 77.1 91.7731 76.7 91.7731 75.74C91.7731 74.94 92.5731 74.06 94.8931 74.06C96.1931 74.06 97.0131 74.4 97.4331 74.84C96.9931 74.92 96.7131 75.2 96.7131 75.72C96.7131 76.22 97.1331 76.58 97.7131 76.58C98.2731 76.58 98.7531 76.18 98.7531 75.44C98.7531 74.1 97.1131 73.16 94.9131 73.16C92.0731 73.16 90.7531 74.48 90.7531 75.76C90.7531 77.22 91.5331 78 94.2731 78.18L95.4531 78.26C97.4131 78.4 97.9531 78.96 97.9531 79.74C97.9531 80.74 96.8331 81.34 94.6731 81.34C92.9331 81.34 92.2931 80.92 91.8731 80.48C92.3131 80.4 92.5931 80.12 92.5931 79.6C92.5931 79.1 92.1731 78.74 91.5931 78.74C91.0331 78.74 90.5531 79.14 90.5531 79.88C90.5531 81.22 92.2131 82.24 94.6931 82.24ZM124.338 79.86L123.458 79.44C122.838 80.9 122.658 81.26 122.318 81.26C122.098 81.26 121.978 81 121.978 80.46V75.74C121.978 73.78 119.638 73.16 118.038 73.16C116.698 73.16 114.538 73.74 114.538 75.34C114.538 76.08 114.918 76.58 115.577 76.58C116.238 76.58 116.618 76.18 116.618 75.6C116.618 75.08 116.018 74.66 115.658 74.84C115.958 74.34 117.118 74.16 118.038 74.16C118.998 74.16 120.978 74.4 120.978 75.74C120.978 76.64 120.398 76.86 117.998 76.92C115.838 76.98 113.778 77.74 113.798 79.7C113.818 81.54 115.138 82.26 116.678 82.26C118.358 82.26 119.498 81.64 120.978 80.46C120.938 81.74 121.598 82.26 122.318 82.26C123.138 82.26 123.578 81.78 124.338 79.86ZM120.978 77.3V79.22C119.358 80.62 118.238 81.26 116.698 81.26C115.498 81.26 114.798 80.76 114.798 79.66C114.798 78.46 116.238 77.94 117.978 77.92C119.758 77.9 120.378 77.64 120.978 77.3ZM138.042 81V82H144.782V81H141.722V74.4H144.782V73.4H141.762C141.942 71.86 142.922 70.94 144.602 70.94C146.362 70.94 147.162 71.9 147.182 72.42C146.862 72.2 145.862 72.4 145.862 73.26C145.862 73.92 146.342 74.32 147.002 74.32C147.702 74.32 148.202 73.74 148.202 72.84C148.202 71.18 146.682 69.94 144.622 69.94C142.542 69.94 140.982 71.26 140.762 73.4H138.042V74.4H140.722V81H138.042ZM160.314 79.86L159.434 79.44C158.814 80.9 158.634 81.26 158.294 81.26C158.074 81.26 157.954 81 157.954 80.46V75.74C157.954 73.78 155.614 73.16 154.014 73.16C152.674 73.16 150.514 73.74 150.514 75.34C150.514 76.08 150.894 76.58 151.554 76.58C152.214 76.58 152.594 76.18 152.594 75.6C152.594 75.08 151.994 74.66 151.634 74.84C151.934 74.34 153.094 74.16 154.014 74.16C154.974 74.16 156.954 74.4 156.954 75.74C156.954 76.64 156.374 76.86 153.974 76.92C151.814 76.98 149.754 77.74 149.774 79.7C149.794 81.54 151.114 82.26 152.654 82.26C154.334 82.26 155.474 81.64 156.954 80.46C156.914 81.74 157.574 82.26 158.294 82.26C159.114 82.26 159.554 81.78 160.314 79.86ZM156.954 77.3V79.22C155.334 80.62 154.214 81.26 152.674 81.26C151.474 81.26 150.774 80.76 150.774 79.66C150.774 78.46 152.214 77.94 153.954 77.92C155.734 77.9 156.354 77.64 156.954 77.3ZM161.866 74.42L161.646 74.74L162.506 75.22C163.106 74.38 163.266 74.14 163.486 74.14C163.726 74.14 163.846 74.3 163.846 74.84V81H162.306V82H166.386V81H164.846V76.96C166.606 75.14 167.106 74.14 168.206 74.14C168.906 74.14 169.806 74.44 169.806 75.68V81H168.266V82H172.326V81H170.806V75.68C170.806 73.64 169.226 73.14 168.206 73.14C166.966 73.14 166.226 74.04 164.846 75.58V74.98C164.906 73.5 164.206 73.14 163.486 73.14C162.846 73.14 162.466 73.54 161.866 74.42ZM190.631 82.24C193.071 82.24 194.971 81.42 194.971 79.7C194.971 78.22 193.931 77.46 191.511 77.3L190.251 77.22C188.431 77.1 187.711 76.7 187.711 75.74C187.711 74.94 188.511 74.06 190.831 74.06C192.131 74.06 192.951 74.4 193.371 74.84C192.931 74.92 192.651 75.2 192.651 75.72C192.651 76.22 193.071 76.58 193.651 76.58C194.211 76.58 194.691 76.18 194.691 75.44C194.691 74.1 193.051 73.16 190.851 73.16C188.011 73.16 186.691 74.48 186.691 75.76C186.691 77.22 187.471 78 190.211 78.18L191.391 78.26C193.351 78.4 193.891 78.96 193.891 79.74C193.891 80.74 192.771 81.34 190.611 81.34C188.871 81.34 188.231 80.92 187.811 80.48C188.251 80.4 188.531 80.12 188.531 79.6C188.531 79.1 188.111 78.74 187.531 78.74C186.971 78.74 186.491 79.14 186.491 79.88C186.491 81.22 188.151 82.24 190.631 82.24ZM202.983 72.56C203.543 72.56 204.003 72.08 204.003 71.54C204.003 71 203.543 70.52 202.983 70.52C202.423 70.52 201.943 71 201.943 71.54C201.943 72.08 202.423 72.56 202.983 72.56ZM207.203 81H203.643V73.4H198.823V74.4H202.643V81H198.823V82H207.203V81ZM209.615 73.4V74.4H212.215V79.96C212.215 81.94 213.835 82.26 214.815 82.26C216.175 82.26 217.375 81.34 219.935 79.8L219.395 79C217.175 80.32 215.955 81.26 214.815 81.26C214.155 81.26 213.215 81.24 213.215 79.72V74.4H218.835V73.4H213.215V70.2H212.215V73.4H209.615ZM222.187 77.54C222.187 80.24 224.287 82.24 226.647 82.24C228.447 82.24 230.187 81.5 231.447 79.26L230.587 78.76C229.747 80.44 228.327 81.24 226.647 81.24C224.707 81.24 223.187 79.62 223.187 77.66H230.887V77.26C230.887 74.74 228.827 73.16 226.647 73.16C224.207 73.16 222.187 74.46 222.187 77.54ZM229.827 76.66H223.247C223.447 75.16 224.627 74.16 226.647 74.16C228.307 74.16 229.687 75.36 229.827 76.66ZM238.759 82.26C239.839 82.26 240.719 81.32 240.719 80.28C240.719 79.22 239.839 78.3 238.759 78.3C237.659 78.3 236.719 79.22 236.719 80.28C236.719 81.32 237.659 82.26 238.759 82.26ZM267.104 81H263.424V70.2H258.724V71.2H262.424V81H258.724V82H267.104V81ZM269.696 82.96C269.696 84.6 270.776 85.46 272.036 85.46C273.196 85.46 274.316 85.14 275.596 82L278.716 74.4H280.256V73.4H276.076V74.4H277.616L275.056 80.74L272.476 74.4H274.016V73.4H269.836V74.4H271.376L274.476 82L274.116 82.8C273.596 83.98 272.956 84.48 272.156 84.48C271.076 84.48 270.656 83.74 270.716 82.88C270.896 83.22 271.216 83.34 271.636 83.32C272.136 83.3 272.516 82.92 272.516 82.24C272.516 81.6 271.956 81.16 271.276 81.16C270.416 81.16 269.696 81.96 269.696 82.96ZM281.928 74.42L281.708 74.74L282.568 75.22C283.168 74.38 283.328 74.14 283.548 74.14C283.788 74.14 283.908 74.3 283.908 74.84V81H282.288V82H288.788V81H284.908V76.98C286.688 74.84 287.788 74.16 288.708 74.14C289.908 74.12 290.448 74.92 290.508 75.84C289.708 75.56 289.088 76.1 289.088 76.7C289.088 77.32 289.608 77.74 290.168 77.74C290.868 77.74 291.548 77.18 291.548 76.12C291.548 74.2 290.428 73.14 288.708 73.14C287.188 73.14 286.348 73.94 284.908 75.54V74.98C284.968 73.5 284.268 73.14 283.548 73.14C282.908 73.14 282.528 73.54 281.928 74.42ZM298.92 72.56C299.48 72.56 299.94 72.08 299.94 71.54C299.94 71 299.48 70.52 298.92 70.52C298.36 70.52 297.88 71 297.88 71.54C297.88 72.08 298.36 72.56 298.92 72.56ZM303.14 81H299.58V73.4H294.76V74.4H298.58V81H294.76V82H303.14V81ZM314.912 77.84L315.873 77.94C315.713 80.68 313.353 82.24 310.893 82.24C307.733 82.24 305.993 80.06 305.993 77.62C305.993 74.92 307.713 73.14 310.453 73.14C312.293 73.14 314.233 74.14 314.233 75.9C314.233 76.8 313.693 77.34 313.013 77.34C312.353 77.34 311.873 76.9 311.873 76.24C311.873 75.64 312.613 75.2 313.213 75.5C312.953 74.7 312.013 74.14 310.453 74.14C308.313 74.14 306.993 75.46 306.993 77.62C306.993 79.66 308.573 81.24 310.893 81.24C313.013 81.24 314.753 79.86 314.912 77.84ZM322.545 82.24C324.985 82.24 326.885 81.42 326.885 79.7C326.885 78.22 325.845 77.46 323.425 77.3L322.165 77.22C320.345 77.1 319.625 76.7 319.625 75.74C319.625 74.94 320.425 74.06 322.745 74.06C324.045 74.06 324.865 74.4 325.285 74.84C324.845 74.92 324.565 75.2 324.565 75.72C324.565 76.22 324.985 76.58 325.565 76.58C326.125 76.58 326.605 76.18 326.605 75.44C326.605 74.1 324.965 73.16 322.765 73.16C319.925 73.16 318.605 74.48 318.605 75.76C318.605 77.22 319.385 78 322.125 78.18L323.305 78.26C325.265 78.4 325.805 78.96 325.805 79.74C325.805 80.74 324.685 81.34 322.525 81.34C320.785 81.34 320.145 80.92 319.725 80.48C320.165 80.4 320.445 80.12 320.445 79.6C320.445 79.1 320.025 78.74 319.445 78.74C318.885 78.74 318.405 79.14 318.405 79.88C318.405 81.22 320.065 82.24 322.545 82.24ZM341.489 70.2V71.2H343.269V82H344.269V80.3C345.069 81.4 346.289 82.26 347.649 82.26C350.109 82.26 351.769 80.22 351.769 77.68C351.769 75.14 350.109 73.14 347.649 73.14C346.269 73.14 345.049 74 344.269 75.1V70.2H341.489ZM344.269 78.84V76.56C345.369 75.26 346.269 74.14 347.649 74.14C349.549 74.14 350.769 75.7 350.769 77.68C350.789 79.72 349.529 81.26 347.649 81.26C346.329 81.26 345.389 80.14 344.269 78.84ZM354.101 77.54C354.101 80.24 356.201 82.24 358.561 82.24C360.361 82.24 362.101 81.5 363.361 79.26L362.501 78.76C361.661 80.44 360.241 81.24 358.561 81.24C356.621 81.24 355.101 79.62 355.101 77.66H362.801V77.26C362.801 74.74 360.741 73.16 358.561 73.16C356.121 73.16 354.101 74.46 354.101 77.54ZM361.741 76.66H355.161C355.361 75.16 356.541 74.16 358.561 74.16C360.221 74.16 361.601 75.36 361.741 76.66ZM375.033 81H371.353V70.2H366.653V71.2H370.353V81H366.653V82H375.033V81ZM382.766 82.26C385.366 82.26 387.506 80.22 387.506 77.7C387.506 75.18 385.366 73.14 382.766 73.14C380.146 73.14 378.006 75.18 378.006 77.7C378.006 80.22 380.146 82.26 382.766 82.26ZM382.746 81.26C380.686 81.26 379.006 79.66 379.006 77.7C379.006 75.74 380.686 74.12 382.746 74.14C384.806 74.16 386.526 75.74 386.506 77.7C386.486 79.66 384.806 81.26 382.746 81.26ZM389.718 74.42L389.498 74.74L390.358 75.22C390.958 74.38 391.118 74.14 391.338 74.14C391.578 74.14 391.698 74.3 391.698 74.84V81H390.158V82H394.238V81H392.698V76.96C394.458 75.14 394.958 74.14 396.058 74.14C396.758 74.14 397.658 74.44 397.658 75.68V81H396.118V82H400.178V81H398.658V75.68C398.658 73.64 397.078 73.14 396.058 73.14C394.818 73.14 394.078 74.04 392.698 75.58V74.98C392.758 73.5 392.058 73.14 391.338 73.14C390.698 73.14 390.318 73.54 389.718 74.42ZM401.27 83.08C401.27 84.38 402.33 85.46 404.45 85.46H408.37C410.83 85.46 411.83 84.34 411.83 83C411.83 81.6 411.03 80.78 409.23 80.78H404.93C403.05 80.78 402.31 80.18 402.31 79.48C402.31 78.7 403.05 78.46 403.95 78.1C404.51 79 405.51 79.56 406.71 79.56C408.53 79.56 409.79 78.06 409.79 76.48C409.79 75.78 409.65 75.18 409.39 74.68C409.99 74.26 410.71 74.12 411.17 74.66C410.63 74.66 410.39 75.08 410.39 75.6C410.39 76.16 410.95 76.46 411.43 76.46C411.99 76.46 412.45 75.92 412.45 75.32C412.45 74.18 411.51 73.34 410.37 73.34C409.83 73.34 409.25 73.58 408.79 73.88C408.27 73.4 407.55 73.14 406.71 73.14C404.75 73.14 403.45 74.72 403.45 76.32C403.45 76.62 403.49 76.92 403.55 77.2C402.27 77.64 401.31 78.36 401.31 79.46C401.31 80.28 401.69 80.94 402.43 81.26C401.65 81.62 401.27 82.28 401.27 83.08ZM404.47 76.38C404.47 75.22 405.19 74.14 406.69 74.14C408.03 74.14 408.77 75.24 408.77 76.38C408.77 77.52 408.03 78.56 406.69 78.56C405.31 78.56 404.47 77.52 404.47 76.38ZM402.33 83.02C402.33 82.34 402.81 81.76 403.97 81.76L409.25 81.78C410.41 81.78 410.81 82.3 410.81 83.08C410.81 83.78 410.25 84.46 408.15 84.46H404.61C402.87 84.46 402.33 83.84 402.33 83.02ZM425.474 73.4V74.4H428.074V79.96C428.074 81.94 429.694 82.26 430.674 82.26C432.034 82.26 433.234 81.34 435.794 79.8L435.254 79C433.034 80.32 431.814 81.26 430.674 81.26C430.014 81.26 429.074 81.24 429.074 79.72V74.4H434.694V73.4H429.074V70.2H428.074V73.4H425.474ZM442.727 82.26C445.327 82.26 447.467 80.22 447.467 77.7C447.467 75.18 445.327 73.14 442.727 73.14C440.107 73.14 437.967 75.18 437.967 77.7C437.967 80.22 440.107 82.26 442.727 82.26ZM442.707 81.26C440.647 81.26 438.967 79.66 438.967 77.7C438.967 75.74 440.647 74.12 442.707 74.14C444.767 74.16 446.487 75.74 446.467 77.7C446.447 79.66 444.767 81.26 442.707 81.26ZM463.471 70.22C464.631 70.26 465.831 70.14 467.051 70.14C469.371 70.14 471.131 70.98 471.131 73.28C471.131 74.46 470.371 75.48 469.231 75.7C470.851 76.02 471.791 76.98 471.791 78.56C471.791 81.26 469.731 82.08 467.011 82.08C465.811 82.08 464.751 82 463.551 82H461.231V81H463.071V71.22C462.411 71.18 461.711 71.1 461.011 70.96L461.251 69.98C462.111 70.14 462.751 70.2 463.471 70.22ZM464.071 71.22V75.22L467.011 75.24C468.711 75.26 470.131 74.92 470.131 73.28C470.131 71.82 469.051 71.14 467.071 71.14C466.051 71.14 465.091 71.22 464.071 71.22ZM464.071 76.22V81L467.011 81.08C469.231 81.14 470.791 80.5 470.791 78.56C470.791 76.76 469.231 76.22 467.011 76.22H464.071ZM484.103 79.86L483.223 79.44C482.603 80.9 482.423 81.26 482.083 81.26C481.863 81.26 481.743 81 481.743 80.46V75.74C481.743 73.78 479.403 73.16 477.803 73.16C476.463 73.16 474.303 73.74 474.303 75.34C474.303 76.08 474.683 76.58 475.343 76.58C476.003 76.58 476.383 76.18 476.383 75.6C476.383 75.08 475.783 74.66 475.423 74.84C475.723 74.34 476.883 74.16 477.803 74.16C478.763 74.16 480.743 74.4 480.743 75.74C480.743 76.64 480.163 76.86 477.763 76.92C475.603 76.98 473.543 77.74 473.563 79.7C473.583 81.54 474.903 82.26 476.443 82.26C478.123 82.26 479.263 81.64 480.743 80.46C480.703 81.74 481.363 82.26 482.083 82.26C482.903 82.26 483.343 81.78 484.103 79.86ZM480.743 77.3V79.22C479.123 80.62 478.003 81.26 476.463 81.26C475.263 81.26 474.563 80.76 474.563 79.66C474.563 78.46 476.003 77.94 477.743 77.92C479.523 77.9 480.143 77.64 480.743 77.3ZM492.955 71.2V75.1C492.175 74 490.955 73.14 489.575 73.14C487.115 73.14 485.455 75.14 485.455 77.68C485.455 80.22 487.115 82.26 489.575 82.26C490.935 82.26 492.155 81.4 492.955 80.3C492.915 81.78 493.555 82.26 494.275 82.26C495.095 82.26 495.535 81.78 496.295 79.86L495.415 79.44C494.795 80.9 494.615 81.26 494.275 81.26C494.055 81.26 493.935 81 493.935 80.46L493.955 70.2H490.895V71.2H492.955ZM492.955 76.56V78.84C491.835 80.14 490.895 81.26 489.575 81.26C487.695 81.26 486.435 79.72 486.455 77.68C486.475 75.7 487.675 74.14 489.575 74.14C490.955 74.14 491.855 75.26 492.955 76.56ZM511.44 70.22C512.6 70.26 513.8 70.14 515.02 70.14C517.34 70.14 519.1 70.98 519.1 73.28C519.1 74.46 518.34 75.48 517.2 75.7C518.82 76.02 519.76 76.98 519.76 78.56C519.76 81.26 517.7 82.08 514.98 82.08C513.78 82.08 512.72 82 511.52 82H509.2V81H511.04V71.22C510.38 71.18 509.68 71.1 508.98 70.96L509.22 69.98C510.08 70.14 510.72 70.2 511.44 70.22ZM512.04 71.22V75.22L514.98 75.24C516.68 75.26 518.1 74.92 518.1 73.28C518.1 71.82 517.02 71.14 515.04 71.14C514.02 71.14 513.06 71.22 512.04 71.22ZM512.04 76.22V81L514.98 81.08C517.2 81.14 518.76 80.5 518.76 78.56C518.76 76.76 517.2 76.22 514.98 76.22H512.04ZM531.752 80.98L530.132 81V74.98C530.192 73.5 529.552 73.14 528.832 73.14C528.192 73.14 527.752 73.54 527.152 74.42L526.932 74.74L527.792 75.22C528.392 74.38 528.552 74.14 528.772 74.14C529.012 74.14 529.132 74.3 529.132 74.84V78.44C527.372 80.26 526.872 81.26 525.772 81.26C525.072 81.26 524.172 80.96 524.172 79.72V74.98C524.232 73.5 523.592 73.14 522.872 73.14C522.232 73.14 521.792 73.54 521.192 74.42L520.972 74.74L521.832 75.22C522.432 74.38 522.592 74.14 522.812 74.14C523.052 74.14 523.172 74.3 523.172 74.84V79.72C523.172 81.76 524.752 82.26 525.772 82.26C527.012 82.26 527.752 81.36 529.132 79.82V82L531.752 81.98V80.98ZM533.624 74.42L533.404 74.74L534.264 75.22C534.864 74.38 535.024 74.14 535.244 74.14C535.484 74.14 535.604 74.3 535.604 74.84V81H534.064V82H538.144V81H536.604V76.96C538.364 75.14 538.864 74.14 539.964 74.14C540.664 74.14 541.564 74.44 541.564 75.68V81H540.024V82H544.084V81H542.564V75.68C542.564 73.64 540.984 73.14 539.964 73.14C538.724 73.14 537.984 74.04 536.604 75.58V74.98C536.664 73.5 535.964 73.14 535.244 73.14C534.604 73.14 534.224 73.54 533.624 74.42ZM545.616 74.42L545.396 74.74L546.256 75.22C546.856 74.38 547.016 74.14 547.236 74.14C547.476 74.14 547.596 74.3 547.596 74.84V81H546.056V82H550.136V81H548.596V76.96C550.356 75.14 550.856 74.14 551.956 74.14C552.656 74.14 553.556 74.44 553.556 75.68V81H552.016V82H556.076V81H554.556V75.68C554.556 73.64 552.976 73.14 551.956 73.14C550.716 73.14 549.976 74.04 548.596 75.58V74.98C548.656 73.5 547.956 73.14 547.236 73.14C546.596 73.14 546.216 73.54 545.616 74.42ZM557.508 82.96C557.508 84.6 558.588 85.46 559.848 85.46C561.008 85.46 562.128 85.14 563.408 82L566.528 74.4H568.068V73.4H563.888V74.4H565.428L562.868 80.74L560.288 74.4H561.828V73.4H557.648V74.4H559.188L562.288 82L561.928 82.8C561.408 83.98 560.768 84.48 559.968 84.48C558.888 84.48 558.468 83.74 558.528 82.88C558.708 83.22 559.028 83.34 559.448 83.32C559.948 83.3 560.328 82.92 560.328 82.24C560.328 81.6 559.768 81.16 559.088 81.16C558.228 81.16 557.508 81.96 557.508 82.96ZM574.541 82.26C575.621 82.26 576.501 81.32 576.501 80.28C576.501 79.22 575.621 78.3 574.541 78.3C573.441 78.3 572.501 79.22 572.501 80.28C572.501 81.32 573.441 82.26 574.541 82.26Z" fill="black"/>
</svg>
