<?xml version="1.0" standalone="no"?>
<!DOCTYPE svg PUBLIC "-//W3C//DTD SVG 20010904//EN"
 "http://www.w3.org/TR/2001/REC-SVG-20010904/DTD/svg10.dtd">
<svg version="1.0" xmlns="http://www.w3.org/2000/svg"
 width="390.000000pt" height="390.000000pt" viewBox="0 0 390.000000 390.000000"
 preserveAspectRatio="xMidYMid meet">
<metadata>
Created by potrace 1.11, written by Peter Selinger 2001-2013
</metadata>
<g transform="translate(0.000000,390.000000) scale(0.100000,-0.100000)"
fill="#000000" stroke="none">
<path d="M915 3730 c-22 -11 -54 -34 -71 -51 -66 -63 -123 -225 -141 -394 -14
-132 -6 -492 13 -590 2 -11 7 -40 10 -65 3 -25 12 -73 19 -106 8 -34 16 -73
19 -85 20 -98 100 -321 168 -469 74 -161 105 -254 101 -300 -2 -19 -14 -51
-27 -70 -42 -63 -103 -192 -125 -265 -31 -98 -36 -141 -35 -290 1 -102 6 -147
23 -210 33 -119 92 -245 138 -293 7 -7 13 -17 13 -21 0 -18 163 -171 228 -214
124 -83 213 -111 452 -142 87 -11 331 -12 390 -2 140 25 166 32 322 89 121 45
322 199 400 308 28 39 96 178 103 210 3 11 7 30 10 42 23 95 28 312 10 418 -3
19 -11 62 -17 95 -5 33 -12 72 -14 86 -3 14 19 96 50 190 50 149 109 359 121
431 3 15 12 58 21 95 9 38 18 79 20 93 8 48 14 85 18 106 7 33 14 84 21 139 4
28 8 61 10 74 3 14 7 54 11 90 3 36 8 74 10 86 19 99 20 535 1 630 -10 48 -18
95 -17 97 4 7 -51 140 -67 165 -79 122 -216 170 -334 116 -98 -44 -215 -183
-276 -328 -44 -105 -146 -499 -168 -655 -4 -24 -8 -47 -10 -50 -2 -3 -6 -30
-10 -60 -4 -30 -8 -57 -10 -60 -2 -3 -6 -27 -9 -55 -4 -27 -9 -61 -11 -75 -2
-14 -6 -45 -9 -70 -3 -25 -8 -63 -10 -85 -3 -22 -8 -71 -11 -110 -6 -75 -14
-127 -20 -133 -7 -7 -64 -3 -135 12 -70 14 -150 14 -333 2 -26 -1 -54 2 -62 8
-14 10 -36 103 -49 206 -11 95 -50 320 -81 470 -76 373 -171 651 -281 820 -49
75 -136 160 -179 176 -54 19 -146 16 -190 -6z m2021 -96 c65 -31 115 -108 142
-216 21 -85 27 -181 26 -448 -1 -223 -4 -286 -23 -395 -12 -71 -23 -141 -25
-155 -13 -81 -62 -307 -97 -445 -61 -243 -108 -385 -128 -385 -5 0 -24 13 -41
29 -50 45 -76 57 -95 41 -22 -18 -19 -44 9 -77 61 -72 131 -219 157 -329 26
-112 29 -302 5 -414 -37 -175 -139 -314 -320 -435 -140 -93 -268 -145 -421
-171 -81 -13 -421 -12 -512 3 -166 26 -311 96 -429 208 -6 5 -26 24 -45 40
-122 108 -197 258 -224 450 -7 54 -8 261 -1 273 2 4 7 31 10 59 16 148 106
310 263 473 34 36 63 70 63 77 0 23 -21 24 -61 4 -22 -12 -46 -21 -53 -21 -15
0 -63 71 -94 142 -11 23 -29 63 -40 88 -47 105 -117 311 -147 436 -17 70 -45
203 -50 241 -3 26 -8 50 -10 54 -8 12 -20 201 -19 304 1 298 54 453 176 516
87 45 186 11 254 -87 41 -58 141 -274 127 -274 -3 0 -1 -6 4 -12 19 -24 113
-356 137 -478 2 -14 16 -83 30 -155 30 -156 43 -233 51 -300 4 -27 8 -59 10
-70 1 -11 6 -56 10 -100 9 -92 12 -111 20 -124 6 -10 16 -9 125 11 103 19 348
15 463 -7 84 -16 100 -16 107 -4 9 13 24 96 35 194 6 51 11 87 20 152 3 21 8
57 11 79 3 23 7 53 9 65 3 13 10 53 16 89 67 417 210 848 331 1001 63 81 149
108 224 73z"/>
<path d="M2459 1310 c-1 -11 -3 -24 -4 -30 -1 -5 -3 -14 -4 -20 0 -5 -16 -10
-33 -10 -32 0 -67 -14 -58 -23 3 -3 22 -7 43 -10 21 -3 40 -7 42 -8 2 -2 4
-24 6 -49 2 -45 26 -107 36 -97 3 3 7 32 10 64 6 70 15 83 59 83 22 0 34 5 34
14 0 16 -21 26 -56 26 -13 0 -25 5 -25 10 -1 6 -3 15 -4 20 -1 6 -3 19 -4 30
-1 13 -8 20 -21 20 -13 0 -20 -7 -21 -20z"/>
<path d="M1307 1274 c-4 -4 -7 -22 -7 -41 0 -30 -2 -33 -32 -34 -18 0 -42 -4
-53 -8 -19 -8 -19 -8 3 -20 12 -7 26 -10 30 -8 4 3 17 1 30 -4 19 -7 22 -16
22 -62 0 -41 5 -58 20 -72 15 -14 20 -15 21 -4 4 119 14 142 56 134 27 -4 50
19 31 31 -7 5 -22 9 -33 10 -11 0 -25 2 -32 2 -6 1 -13 19 -15 39 -3 36 -23
54 -41 37z"/>
<path d="M1863 949 c-60 -12 -133 -73 -133 -111 0 -20 0 -20 200 -19 69 1 134
3 145 6 11 2 26 4 33 4 17 1 15 32 -4 59 -36 51 -151 81 -241 61z"/>
</g>
</svg>
